<svg width="16" height="16" viewBox="0 0 16 16" fill="none" xmlns="http://www.w3.org/2000/svg">
<path d="M12.4826 2.99539C12.3046 2.99539 12.1306 3.04817 11.9826 3.14707C11.8346 3.24596 11.7192 3.38652 11.6511 3.55097C11.583 3.71543 11.5652 3.89639 11.5999 4.07097C11.6346 4.24555 11.7203 4.40592 11.8462 4.53179C11.9721 4.65765 12.1324 4.74337 12.307 4.7781C12.4816 4.81282 12.6626 4.795 12.827 4.72688C12.9915 4.65876 13.132 4.54341 13.2309 4.3954C13.3298 4.2474 13.3826 4.07339 13.3826 3.89539C13.3826 3.65669 13.2878 3.42778 13.119 3.25899C12.9502 3.09021 12.7213 2.99539 12.4826 2.99539ZM15.9326 4.81039C15.918 4.18811 15.8015 3.57244 15.5876 2.98789C15.3969 2.48774 15.1001 2.03485 14.7176 1.66039C14.3462 1.27596 13.8923 0.981021 13.3901 0.797891C12.8071 0.577512 12.1907 0.458298 11.5676 0.445391C10.7726 0.400391 10.5176 0.400391 8.4776 0.400391C6.4376 0.400391 6.1826 0.400391 5.3876 0.445391C4.76446 0.458298 4.14811 0.577512 3.5651 0.797891C3.06386 0.982881 2.6103 1.27756 2.2376 1.66039C1.85317 2.03177 1.55823 2.48572 1.3751 2.98789C1.15472 3.5709 1.03551 4.18725 1.0226 4.81039C0.9776 5.60539 0.9776 5.86039 0.9776 7.90039C0.9776 9.94039 0.9776 10.1954 1.0226 10.9904C1.03551 11.6135 1.15472 12.2299 1.3751 12.8129C1.55823 13.3151 1.85317 13.769 2.2376 14.1404C2.6103 14.5232 3.06386 14.8179 3.5651 15.0029C4.14811 15.2233 4.76446 15.3425 5.3876 15.3554C6.1826 15.4004 6.4376 15.4004 8.4776 15.4004C10.5176 15.4004 10.7726 15.4004 11.5676 15.3554C12.1907 15.3425 12.8071 15.2233 13.3901 15.0029C13.8923 14.8198 14.3462 14.5248 14.7176 14.1404C15.1018 13.7673 15.3989 13.314 15.5876 12.8129C15.8015 12.2283 15.918 11.6127 15.9326 10.9904C15.9326 10.1954 15.9776 9.94039 15.9776 7.90039C15.9776 5.86039 15.9776 5.60539 15.9326 4.81039ZM14.5826 10.9004C14.5771 11.3765 14.4909 11.8482 14.3276 12.2954C14.2078 12.6218 14.0155 12.9167 13.7651 13.1579C13.5218 13.4058 13.2275 13.5977 12.9026 13.7204C12.4554 13.8837 11.9837 13.9699 11.5076 13.9754C10.7576 14.0129 10.4801 14.0204 8.5076 14.0204C6.5351 14.0204 6.2576 14.0204 5.5076 13.9754C5.01327 13.9847 4.52105 13.9085 4.0526 13.7504C3.74194 13.6215 3.46112 13.43 3.2276 13.1879C2.97867 12.947 2.78873 12.6518 2.6726 12.3254C2.48949 11.8718 2.38793 11.3894 2.3726 10.9004C2.3726 10.1504 2.3276 9.87289 2.3276 7.90039C2.3276 5.92789 2.3276 5.65039 2.3726 4.90039C2.37596 4.41368 2.46481 3.93135 2.6351 3.47539C2.76714 3.15882 2.9698 2.87663 3.2276 2.65039C3.45546 2.39252 3.73707 2.18771 4.0526 2.05039C4.50976 1.88542 4.9916 1.7992 5.4776 1.79539C6.2276 1.79539 6.5051 1.75039 8.4776 1.75039C10.4501 1.75039 10.7276 1.75039 11.4776 1.79539C11.9537 1.80085 12.4254 1.88707 12.8726 2.05039C13.2134 2.17688 13.5193 2.38253 13.7651 2.65039C14.0109 2.88077 14.2029 3.16244 14.3276 3.47539C14.4943 3.93209 14.5806 4.41422 14.5826 4.90039C14.6201 5.65039 14.6276 5.92789 14.6276 7.90039C14.6276 9.87289 14.6201 10.1504 14.5826 10.9004ZM8.4776 4.05289C7.71696 4.05437 6.97382 4.28128 6.34209 4.70495C5.71036 5.12862 5.21838 5.73004 4.92833 6.4332C4.63827 7.13637 4.56314 7.90974 4.71245 8.65559C4.86175 9.40143 5.22878 10.0863 5.76716 10.6236C6.30554 11.161 6.99111 11.5267 7.73724 11.6745C8.48338 11.8224 9.2566 11.7457 9.9592 11.4543C10.6618 11.1629 11.2623 10.6697 11.6847 10.0372C12.1071 9.40461 12.3326 8.66103 12.3326 7.90039C12.3336 7.39422 12.2345 6.89285 12.041 6.42511C11.8476 5.95737 11.5635 5.5325 11.2053 5.17493C10.847 4.81736 10.4216 4.53415 9.95345 4.34159C9.48533 4.14903 8.98377 4.05091 8.4776 4.05289ZM8.4776 10.3979C7.98364 10.3979 7.50078 10.2514 7.09006 9.97699C6.67935 9.70256 6.35924 9.3125 6.17021 8.85614C5.98118 8.39978 5.93172 7.89762 6.02809 7.41315C6.12446 6.92868 6.36232 6.48367 6.7116 6.13439C7.06088 5.78511 7.50589 5.54725 7.99036 5.45088C8.47483 5.35451 8.97699 5.40397 9.43335 5.593C9.88971 5.78203 10.2798 6.10214 10.5542 6.51285C10.8286 6.92357 10.9751 7.40643 10.9751 7.90039C10.9751 8.22837 10.9105 8.55313 10.785 8.85614C10.6595 9.15915 10.4755 9.43448 10.2436 9.66639C10.0117 9.8983 9.73636 10.0823 9.43335 10.2078C9.13034 10.3333 8.80558 10.3979 8.4776 10.3979Z" fill="white"/>
</svg>
